<?xml version="1.0" encoding="UTF-8" standalone="no"?>
<!DOCTYPE svg PUBLIC "-//W3C//DTD SVG 1.1//EN"
 "http://www.w3.org/Graphics/SVG/1.1/DTD/svg11.dtd">
<!-- Generated by graphviz version 2.40.1 (20161225.0304)
 -->
<!-- Title: snakemake_dag Pages: 1 -->
<svg width="2147pt" height="404pt"
 viewBox="0.00 0.00 2147.02 404.00" xmlns="http://www.w3.org/2000/svg" xmlns:xlink="http://www.w3.org/1999/xlink">
<g id="graph0" class="graph" transform="scale(1 1) rotate(0) translate(4 400)">
<title>snakemake_dag</title>
<polygon fill="#ffffff" stroke="transparent" points="-4,4 -4,-400 2143.0177,-400 2143.0177,4 -4,4"/>
<!-- 0 -->
<g id="node1" class="node">
<title>0</title>
<path fill="none" stroke="#59d856" stroke-width="2" d="M1071.0177,-36C1071.0177,-36 1041.0177,-36 1041.0177,-36 1035.0177,-36 1029.0177,-30 1029.0177,-24 1029.0177,-24 1029.0177,-12 1029.0177,-12 1029.0177,-6 1035.0177,0 1041.0177,0 1041.0177,0 1071.0177,0 1071.0177,0 1077.0177,0 1083.0177,-6 1083.0177,-12 1083.0177,-12 1083.0177,-24 1083.0177,-24 1083.0177,-30 1077.0177,-36 1071.0177,-36"/>
<text text-anchor="middle" x="1056.0177" y="-15.5" font-family="sans" font-size="10.00" fill="#000000">all</text>
</g>
<!-- 1 -->
<g id="node2" class="node">
<title>1</title>
<path fill="none" stroke="#56c1d8" stroke-width="2" stroke-dasharray="5,2" d="M768.5177,-396C768.5177,-396 703.5177,-396 703.5177,-396 697.5177,-396 691.5177,-390 691.5177,-384 691.5177,-384 691.5177,-372 691.5177,-372 691.5177,-366 697.5177,-360 703.5177,-360 703.5177,-360 768.5177,-360 768.5177,-360 774.5177,-360 780.5177,-366 780.5177,-372 780.5177,-372 780.5177,-384 780.5177,-384 780.5177,-390 774.5177,-396 768.5177,-396"/>
<text text-anchor="middle" x="736.0177" y="-375.5" font-family="sans" font-size="10.00" fill="#000000">renaming_files</text>
</g>
<!-- 1&#45;&gt;0 -->
<g id="edge1" class="edge">
<title>1&#45;&gt;0</title>
<path fill="none" stroke="#c0c0c0" stroke-width="2" d="M691.2686,-373.9938C532.1235,-359.1551 3.0177,-304.5186 3.0177,-234 3.0177,-234 3.0177,-234 3.0177,-162 3.0177,-121.1184 -9.053,-98.5692 22.0177,-72 60.6542,-38.9612 838.5908,-22.1434 1018.9199,-18.68"/>
<polygon fill="#c0c0c0" stroke="#c0c0c0" stroke-width="2" points="1019.0428,-22.1784 1028.9745,-18.4889 1018.9098,-15.1797 1019.0428,-22.1784"/>
</g>
<!-- 3 -->
<g id="node4" class="node">
<title>3</title>
<path fill="none" stroke="#56d8c1" stroke-width="2" d="M541.0177,-324C541.0177,-324 437.0177,-324 437.0177,-324 431.0177,-324 425.0177,-318 425.0177,-312 425.0177,-312 425.0177,-300 425.0177,-300 425.0177,-294 431.0177,-288 437.0177,-288 437.0177,-288 541.0177,-288 541.0177,-288 547.0177,-288 553.0177,-294 553.0177,-300 553.0177,-300 553.0177,-312 553.0177,-312 553.0177,-318 547.0177,-324 541.0177,-324"/>
<text text-anchor="middle" x="489.0177" y="-309" font-family="sans" font-size="10.00" fill="#000000">trim_paired_end_reads</text>
<text text-anchor="middle" x="489.0177" y="-298" font-family="sans" font-size="10.00" fill="#000000">sample: MST103</text>
</g>
<!-- 1&#45;&gt;3 -->
<g id="edge24" class="edge">
<title>1&#45;&gt;3</title>
<path fill="none" stroke="#c0c0c0" stroke-width="2" d="M691.2878,-364.9613C654.9171,-354.3593 602.9031,-339.1974 560.729,-326.9037"/>
<polygon fill="#c0c0c0" stroke="#c0c0c0" stroke-width="2" points="561.6447,-323.525 551.0647,-324.0866 559.6857,-330.2453 561.6447,-323.525"/>
</g>
<!-- 5 -->
<g id="node6" class="node">
<title>5</title>
<path fill="none" stroke="#56d8c1" stroke-width="2" stroke-dasharray="5,2" d="M1019.0177,-324C1019.0177,-324 915.0177,-324 915.0177,-324 909.0177,-324 903.0177,-318 903.0177,-312 903.0177,-312 903.0177,-300 903.0177,-300 903.0177,-294 909.0177,-288 915.0177,-288 915.0177,-288 1019.0177,-288 1019.0177,-288 1025.0177,-288 1031.0177,-294 1031.0177,-300 1031.0177,-300 1031.0177,-312 1031.0177,-312 1031.0177,-318 1025.0177,-324 1019.0177,-324"/>
<text text-anchor="middle" x="967.0177" y="-309" font-family="sans" font-size="10.00" fill="#000000">trim_paired_end_reads</text>
<text text-anchor="middle" x="967.0177" y="-298" font-family="sans" font-size="10.00" fill="#000000">sample: MST109</text>
</g>
<!-- 1&#45;&gt;5 -->
<g id="edge26" class="edge">
<title>1&#45;&gt;5</title>
<path fill="none" stroke="#c0c0c0" stroke-width="2" d="M780.5568,-364.1177C814.1346,-353.6519 860.7762,-339.1142 899.0102,-327.1971"/>
<polygon fill="#c0c0c0" stroke="#c0c0c0" stroke-width="2" points="900.5379,-330.3871 909.0434,-324.0699 898.4549,-323.7042 900.5379,-330.3871"/>
</g>
<!-- 7 -->
<g id="node8" class="node">
<title>7</title>
<path fill="none" stroke="#56d8c1" stroke-width="2" d="M1617.0177,-324C1617.0177,-324 1513.0177,-324 1513.0177,-324 1507.0177,-324 1501.0177,-318 1501.0177,-312 1501.0177,-312 1501.0177,-300 1501.0177,-300 1501.0177,-294 1507.0177,-288 1513.0177,-288 1513.0177,-288 1617.0177,-288 1617.0177,-288 1623.0177,-288 1629.0177,-294 1629.0177,-300 1629.0177,-300 1629.0177,-312 1629.0177,-312 1629.0177,-318 1623.0177,-324 1617.0177,-324"/>
<text text-anchor="middle" x="1565.0177" y="-309" font-family="sans" font-size="10.00" fill="#000000">trim_paired_end_reads</text>
<text text-anchor="middle" x="1565.0177" y="-298" font-family="sans" font-size="10.00" fill="#000000">sample: MST102</text>
</g>
<!-- 1&#45;&gt;7 -->
<g id="edge28" class="edge">
<title>1&#45;&gt;7</title>
<path fill="none" stroke="#c0c0c0" stroke-width="2" d="M780.5883,-374.129C915.7982,-362.3858 1322.3332,-327.0775 1490.7207,-312.4528"/>
<polygon fill="#c0c0c0" stroke="#c0c0c0" stroke-width="2" points="1491.0783,-315.935 1500.7379,-311.5828 1490.4725,-308.9613 1491.0783,-315.935"/>
</g>
<!-- 2 -->
<g id="node3" class="node">
<title>2</title>
<path fill="none" stroke="#d85656" stroke-width="2" d="M803.0177,-108C803.0177,-108 671.0177,-108 671.0177,-108 665.0177,-108 659.0177,-102 659.0177,-96 659.0177,-96 659.0177,-84 659.0177,-84 659.0177,-78 665.0177,-72 671.0177,-72 671.0177,-72 803.0177,-72 803.0177,-72 809.0177,-72 815.0177,-78 815.0177,-84 815.0177,-84 815.0177,-96 815.0177,-96 815.0177,-102 809.0177,-108 803.0177,-108"/>
<text text-anchor="middle" x="737.0177" y="-93" font-family="sans" font-size="10.00" fill="#000000">generate_fastq_qc_statistics</text>
<text text-anchor="middle" x="737.0177" y="-82" font-family="sans" font-size="10.00" fill="#000000">read_n: 1</text>
</g>
<!-- 2&#45;&gt;0 -->
<g id="edge2" class="edge">
<title>2&#45;&gt;0</title>
<path fill="none" stroke="#c0c0c0" stroke-width="2" d="M815.0539,-72.3868C879.8023,-57.7727 969.0337,-37.6327 1018.7411,-26.4135"/>
<polygon fill="#c0c0c0" stroke="#c0c0c0" stroke-width="2" points="1019.7411,-29.7759 1028.7251,-24.1601 1018.1999,-22.9477 1019.7411,-29.7759"/>
</g>
<!-- 3&#45;&gt;2 -->
<g id="edge23" class="edge">
<title>3&#45;&gt;2</title>
<path fill="none" stroke="#c0c0c0" stroke-width="2" d="M512.0614,-287.8364C525.26,-277.399 542.1118,-264.0153 557.0177,-252 596.3611,-220.2861 607.3634,-213.7022 645.0177,-180 668.4721,-159.0073 693.9726,-133.8648 712.1647,-115.4969"/>
<polygon fill="#c0c0c0" stroke="#c0c0c0" stroke-width="2" points="714.9575,-117.6495 719.4866,-108.0715 709.9731,-112.7346 714.9575,-117.6495"/>
</g>
<!-- 8 -->
<g id="node9" class="node">
<title>8</title>
<path fill="none" stroke="#d85656" stroke-width="2" d="M175.0177,-108C175.0177,-108 43.0177,-108 43.0177,-108 37.0177,-108 31.0177,-102 31.0177,-96 31.0177,-96 31.0177,-84 31.0177,-84 31.0177,-78 37.0177,-72 43.0177,-72 43.0177,-72 175.0177,-72 175.0177,-72 181.0177,-72 187.0177,-78 187.0177,-84 187.0177,-84 187.0177,-96 187.0177,-96 187.0177,-102 181.0177,-108 175.0177,-108"/>
<text text-anchor="middle" x="109.0177" y="-93" font-family="sans" font-size="10.00" fill="#000000">generate_fastq_qc_statistics</text>
<text text-anchor="middle" x="109.0177" y="-82" font-family="sans" font-size="10.00" fill="#000000">read_n: 2</text>
</g>
<!-- 3&#45;&gt;8 -->
<g id="edge29" class="edge">
<title>3&#45;&gt;8</title>
<path fill="none" stroke="#c0c0c0" stroke-width="2" d="M424.9284,-298.6289C348.5592,-286.6171 221.5729,-255.9644 144.0177,-180 127.165,-163.493 118.2644,-137.9417 113.6657,-118.2755"/>
<polygon fill="#c0c0c0" stroke="#c0c0c0" stroke-width="2" points="117.0581,-117.3988 111.5818,-108.329 110.2068,-118.8343 117.0581,-117.3988"/>
</g>
<!-- 11 -->
<g id="node12" class="node">
<title>11</title>
<path fill="none" stroke="#56d88a" stroke-width="2" d="M536.0177,-252C536.0177,-252 442.0177,-252 442.0177,-252 436.0177,-252 430.0177,-246 430.0177,-240 430.0177,-240 430.0177,-228 430.0177,-228 430.0177,-222 436.0177,-216 442.0177,-216 442.0177,-216 536.0177,-216 536.0177,-216 542.0177,-216 548.0177,-222 548.0177,-228 548.0177,-228 548.0177,-240 548.0177,-240 548.0177,-246 542.0177,-252 536.0177,-252"/>
<text text-anchor="middle" x="489.0177" y="-231.5" font-family="sans" font-size="10.00" fill="#000000">assembling_genome</text>
</g>
<!-- 3&#45;&gt;11 -->
<g id="edge32" class="edge">
<title>3&#45;&gt;11</title>
<path fill="none" stroke="#c0c0c0" stroke-width="2" d="M489.0177,-287.8314C489.0177,-280.131 489.0177,-270.9743 489.0177,-262.4166"/>
<polygon fill="#c0c0c0" stroke="#c0c0c0" stroke-width="2" points="492.5178,-262.4132 489.0177,-252.4133 485.5178,-262.4133 492.5178,-262.4132"/>
</g>
<!-- 14 -->
<g id="node15" class="node">
<title>14</title>
<path fill="none" stroke="#568ad8" stroke-width="2" d="M410.5177,-180C410.5177,-180 165.5177,-180 165.5177,-180 159.5177,-180 153.5177,-174 153.5177,-168 153.5177,-168 153.5177,-156 153.5177,-156 153.5177,-150 159.5177,-144 165.5177,-144 165.5177,-144 410.5177,-144 410.5177,-144 416.5177,-144 422.5177,-150 422.5177,-156 422.5177,-156 422.5177,-168 422.5177,-168 422.5177,-174 416.5177,-180 410.5177,-180"/>
<text text-anchor="middle" x="288.0177" y="-159.5" font-family="sans" font-size="10.00" fill="#000000">generate_quality_assessment_genome_assemblies</text>
</g>
<!-- 3&#45;&gt;14 -->
<g id="edge36" class="edge">
<title>3&#45;&gt;14</title>
<path fill="none" stroke="#c0c0c0" stroke-width="2" d="M463.5609,-287.7623C427.5406,-261.9567 361.6398,-214.7442 321.6338,-186.0832"/>
<polygon fill="#c0c0c0" stroke="#c0c0c0" stroke-width="2" points="323.4353,-183.0683 313.2678,-180.0896 319.3585,-188.7587 323.4353,-183.0683"/>
</g>
<!-- 4 -->
<g id="node5" class="node">
<title>4</title>
<path fill="none" stroke="#d85656" stroke-width="2" stroke-dasharray="5,2" d="M1351.0177,-252C1351.0177,-252 1219.0177,-252 1219.0177,-252 1213.0177,-252 1207.0177,-246 1207.0177,-240 1207.0177,-240 1207.0177,-228 1207.0177,-228 1207.0177,-222 1213.0177,-216 1219.0177,-216 1219.0177,-216 1351.0177,-216 1351.0177,-216 1357.0177,-216 1363.0177,-222 1363.0177,-228 1363.0177,-228 1363.0177,-240 1363.0177,-240 1363.0177,-246 1357.0177,-252 1351.0177,-252"/>
<text text-anchor="middle" x="1285.0177" y="-237" font-family="sans" font-size="10.00" fill="#000000">generate_fastq_qc_statistics</text>
<text text-anchor="middle" x="1285.0177" y="-226" font-family="sans" font-size="10.00" fill="#000000">read_n: 1</text>
</g>
<!-- 4&#45;&gt;0 -->
<g id="edge3" class="edge">
<title>4&#45;&gt;0</title>
<path fill="none" stroke="#c0c0c0" stroke-width="2" d="M1294.2472,-215.8534C1309.4153,-183.1822 1334.7424,-113.9674 1301.0177,-72 1275.4198,-40.1458 1155.7168,-25.9765 1093.6172,-20.6807"/>
<polygon fill="#c0c0c0" stroke="#c0c0c0" stroke-width="2" points="1093.6993,-17.1759 1083.4473,-19.849 1093.1287,-24.1526 1093.6993,-17.1759"/>
</g>
<!-- 5&#45;&gt;4 -->
<g id="edge25" class="edge">
<title>5&#45;&gt;4</title>
<path fill="none" stroke="#c0c0c0" stroke-width="2" d="M1031.3697,-291.4297C1079.0236,-280.6402 1144.5115,-265.8127 1197.0077,-253.9268"/>
<polygon fill="#c0c0c0" stroke="#c0c0c0" stroke-width="2" points="1198.0073,-257.2891 1206.9876,-251.6672 1196.4615,-250.4619 1198.0073,-257.2891"/>
</g>
<!-- 9 -->
<g id="node10" class="node">
<title>9</title>
<path fill="none" stroke="#d85656" stroke-width="2" stroke-dasharray="5,2" d="M899.0177,-252C899.0177,-252 767.0177,-252 767.0177,-252 761.0177,-252 755.0177,-246 755.0177,-240 755.0177,-240 755.0177,-228 755.0177,-228 755.0177,-222 761.0177,-216 767.0177,-216 767.0177,-216 899.0177,-216 899.0177,-216 905.0177,-216 911.0177,-222 911.0177,-228 911.0177,-228 911.0177,-240 911.0177,-240 911.0177,-246 905.0177,-252 899.0177,-252"/>
<text text-anchor="middle" x="833.0177" y="-237" font-family="sans" font-size="10.00" fill="#000000">generate_fastq_qc_statistics</text>
<text text-anchor="middle" x="833.0177" y="-226" font-family="sans" font-size="10.00" fill="#000000">read_n: 2</text>
</g>
<!-- 5&#45;&gt;9 -->
<g id="edge30" class="edge">
<title>5&#45;&gt;9</title>
<path fill="none" stroke="#c0c0c0" stroke-width="2" d="M933.2038,-287.8314C915.747,-278.4516 894.269,-266.9112 875.6825,-256.9244"/>
<polygon fill="#c0c0c0" stroke="#c0c0c0" stroke-width="2" points="877.2863,-253.8129 866.8207,-252.1628 873.973,-259.9792 877.2863,-253.8129"/>
</g>
<!-- 12 -->
<g id="node13" class="node">
<title>12</title>
<path fill="none" stroke="#56d88a" stroke-width="2" stroke-dasharray="5,2" d="M1177.0177,-252C1177.0177,-252 1083.0177,-252 1083.0177,-252 1077.0177,-252 1071.0177,-246 1071.0177,-240 1071.0177,-240 1071.0177,-228 1071.0177,-228 1071.0177,-222 1077.0177,-216 1083.0177,-216 1083.0177,-216 1177.0177,-216 1177.0177,-216 1183.0177,-216 1189.0177,-222 1189.0177,-228 1189.0177,-228 1189.0177,-240 1189.0177,-240 1189.0177,-246 1183.0177,-252 1177.0177,-252"/>
<text text-anchor="middle" x="1130.0177" y="-231.5" font-family="sans" font-size="10.00" fill="#000000">assembling_genome</text>
</g>
<!-- 5&#45;&gt;12 -->
<g id="edge33" class="edge">
<title>5&#45;&gt;12</title>
<path fill="none" stroke="#c0c0c0" stroke-width="2" d="M1008.1495,-287.8314C1029.9497,-278.2018 1056.9055,-266.295 1079.9181,-256.1299"/>
<polygon fill="#c0c0c0" stroke="#c0c0c0" stroke-width="2" points="1081.4485,-259.2802 1089.1817,-252.038 1078.6201,-252.877 1081.4485,-259.2802"/>
</g>
<!-- 15 -->
<g id="node16" class="node">
<title>15</title>
<path fill="none" stroke="#568ad8" stroke-width="2" stroke-dasharray="5,2" d="M1089.5177,-180C1089.5177,-180 844.5177,-180 844.5177,-180 838.5177,-180 832.5177,-174 832.5177,-168 832.5177,-168 832.5177,-156 832.5177,-156 832.5177,-150 838.5177,-144 844.5177,-144 844.5177,-144 1089.5177,-144 1089.5177,-144 1095.5177,-144 1101.5177,-150 1101.5177,-156 1101.5177,-156 1101.5177,-168 1101.5177,-168 1101.5177,-174 1095.5177,-180 1089.5177,-180"/>
<text text-anchor="middle" x="967.0177" y="-159.5" font-family="sans" font-size="10.00" fill="#000000">generate_quality_assessment_genome_assemblies</text>
</g>
<!-- 5&#45;&gt;15 -->
<g id="edge38" class="edge">
<title>5&#45;&gt;15</title>
<path fill="none" stroke="#c0c0c0" stroke-width="2" d="M967.0177,-287.7623C967.0177,-263.201 967.0177,-219.2474 967.0177,-190.3541"/>
<polygon fill="#c0c0c0" stroke="#c0c0c0" stroke-width="2" points="970.5178,-190.0896 967.0177,-180.0896 963.5178,-190.0897 970.5178,-190.0896"/>
</g>
<!-- 6 -->
<g id="node7" class="node">
<title>6</title>
<path fill="none" stroke="#d85656" stroke-width="2" d="M2127.0177,-252C2127.0177,-252 1995.0177,-252 1995.0177,-252 1989.0177,-252 1983.0177,-246 1983.0177,-240 1983.0177,-240 1983.0177,-228 1983.0177,-228 1983.0177,-222 1989.0177,-216 1995.0177,-216 1995.0177,-216 2127.0177,-216 2127.0177,-216 2133.0177,-216 2139.0177,-222 2139.0177,-228 2139.0177,-228 2139.0177,-240 2139.0177,-240 2139.0177,-246 2133.0177,-252 2127.0177,-252"/>
<text text-anchor="middle" x="2061.0177" y="-237" font-family="sans" font-size="10.00" fill="#000000">generate_fastq_qc_statistics</text>
<text text-anchor="middle" x="2061.0177" y="-226" font-family="sans" font-size="10.00" fill="#000000">read_n: 1</text>
</g>
<!-- 6&#45;&gt;0 -->
<g id="edge4" class="edge">
<title>6&#45;&gt;0</title>
<path fill="none" stroke="#c0c0c0" stroke-width="2" d="M2067.1578,-215.7094C2072.4022,-197.2645 2078.0721,-168.1444 2071.0177,-144 2060.3681,-107.5506 2057.8011,-91.1631 2025.0177,-72 1984.0995,-48.0819 1266.3356,-24.4866 1093.3156,-19.129"/>
<polygon fill="#c0c0c0" stroke="#c0c0c0" stroke-width="2" points="1093.2786,-15.6263 1083.1755,-18.8166 1093.063,-22.623 1093.2786,-15.6263"/>
</g>
<!-- 7&#45;&gt;6 -->
<g id="edge27" class="edge">
<title>7&#45;&gt;6</title>
<path fill="none" stroke="#c0c0c0" stroke-width="2" d="M1629.0989,-296.6979C1716.7017,-283.9814 1874.2028,-261.1183 1972.8732,-246.7952"/>
<polygon fill="#c0c0c0" stroke="#c0c0c0" stroke-width="2" points="1973.4324,-250.2508 1982.8258,-245.3504 1972.4267,-243.3234 1973.4324,-250.2508"/>
</g>
<!-- 10 -->
<g id="node11" class="node">
<title>10</title>
<path fill="none" stroke="#d85656" stroke-width="2" d="M1525.0177,-252C1525.0177,-252 1393.0177,-252 1393.0177,-252 1387.0177,-252 1381.0177,-246 1381.0177,-240 1381.0177,-240 1381.0177,-228 1381.0177,-228 1381.0177,-222 1387.0177,-216 1393.0177,-216 1393.0177,-216 1525.0177,-216 1525.0177,-216 1531.0177,-216 1537.0177,-222 1537.0177,-228 1537.0177,-228 1537.0177,-240 1537.0177,-240 1537.0177,-246 1531.0177,-252 1525.0177,-252"/>
<text text-anchor="middle" x="1459.0177" y="-237" font-family="sans" font-size="10.00" fill="#000000">generate_fastq_qc_statistics</text>
<text text-anchor="middle" x="1459.0177" y="-226" font-family="sans" font-size="10.00" fill="#000000">read_n: 2</text>
</g>
<!-- 7&#45;&gt;10 -->
<g id="edge31" class="edge">
<title>7&#45;&gt;10</title>
<path fill="none" stroke="#c0c0c0" stroke-width="2" d="M1538.2694,-287.8314C1524.9624,-278.7927 1508.7017,-267.7476 1494.3802,-258.0198"/>
<polygon fill="#c0c0c0" stroke="#c0c0c0" stroke-width="2" points="1495.9962,-254.8864 1485.7574,-252.1628 1492.063,-260.677 1495.9962,-254.8864"/>
</g>
<!-- 13 -->
<g id="node14" class="node">
<title>13</title>
<path fill="none" stroke="#56d88a" stroke-width="2" d="M1859.0177,-252C1859.0177,-252 1765.0177,-252 1765.0177,-252 1759.0177,-252 1753.0177,-246 1753.0177,-240 1753.0177,-240 1753.0177,-228 1753.0177,-228 1753.0177,-222 1759.0177,-216 1765.0177,-216 1765.0177,-216 1859.0177,-216 1859.0177,-216 1865.0177,-216 1871.0177,-222 1871.0177,-228 1871.0177,-228 1871.0177,-240 1871.0177,-240 1871.0177,-246 1865.0177,-252 1859.0177,-252"/>
<text text-anchor="middle" x="1812.0177" y="-231.5" font-family="sans" font-size="10.00" fill="#000000">assembling_genome</text>
</g>
<!-- 7&#45;&gt;13 -->
<g id="edge34" class="edge">
<title>7&#45;&gt;13</title>
<path fill="none" stroke="#c0c0c0" stroke-width="2" d="M1627.0274,-287.9243C1662.2953,-277.6438 1706.5454,-264.745 1742.9239,-254.1407"/>
<polygon fill="#c0c0c0" stroke="#c0c0c0" stroke-width="2" points="1744.3408,-257.3734 1752.9617,-251.2147 1742.3818,-250.6531 1744.3408,-257.3734"/>
</g>
<!-- 16 -->
<g id="node17" class="node">
<title>16</title>
<path fill="none" stroke="#568ad8" stroke-width="2" d="M1658.5177,-180C1658.5177,-180 1413.5177,-180 1413.5177,-180 1407.5177,-180 1401.5177,-174 1401.5177,-168 1401.5177,-168 1401.5177,-156 1401.5177,-156 1401.5177,-150 1407.5177,-144 1413.5177,-144 1413.5177,-144 1658.5177,-144 1658.5177,-144 1664.5177,-144 1670.5177,-150 1670.5177,-156 1670.5177,-156 1670.5177,-168 1670.5177,-168 1670.5177,-174 1664.5177,-180 1658.5177,-180"/>
<text text-anchor="middle" x="1536.0177" y="-159.5" font-family="sans" font-size="10.00" fill="#000000">generate_quality_assessment_genome_assemblies</text>
</g>
<!-- 7&#45;&gt;16 -->
<g id="edge40" class="edge">
<title>7&#45;&gt;16</title>
<path fill="none" stroke="#c0c0c0" stroke-width="2" d="M1561.3448,-287.7623C1556.3767,-263.0928 1547.4686,-218.8598 1541.6511,-189.9731"/>
<polygon fill="#c0c0c0" stroke="#c0c0c0" stroke-width="2" points="1545.0662,-189.2018 1539.6607,-180.0896 1538.2039,-190.5838 1545.0662,-189.2018"/>
</g>
<!-- 8&#45;&gt;0 -->
<g id="edge5" class="edge">
<title>8&#45;&gt;0</title>
<path fill="none" stroke="#c0c0c0" stroke-width="2" d="M187.2015,-73.9847C191.8665,-73.2526 196.498,-72.5824 201.0177,-72 515.6823,-31.4558 899.5896,-20.986 1018.8733,-18.6217"/>
<polygon fill="#c0c0c0" stroke="#c0c0c0" stroke-width="2" points="1019.01,-22.1198 1028.9413,-18.4292 1018.8761,-15.1211 1019.01,-22.1198"/>
</g>
<!-- 9&#45;&gt;0 -->
<g id="edge6" class="edge">
<title>9&#45;&gt;0</title>
<path fill="none" stroke="#c0c0c0" stroke-width="2" d="M826.0811,-215.748C820.0971,-197.0791 813.7535,-167.5547 823.0177,-144 839.0167,-103.3214 853.168,-95.512 890.0177,-72 930.2455,-46.3326 983.7867,-31.811 1019.0455,-24.4345"/>
<polygon fill="#c0c0c0" stroke="#c0c0c0" stroke-width="2" points="1019.805,-27.8519 1028.9222,-22.455 1018.4294,-20.9884 1019.805,-27.8519"/>
</g>
<!-- 10&#45;&gt;0 -->
<g id="edge7" class="edge">
<title>10&#45;&gt;0</title>
<path fill="none" stroke="#c0c0c0" stroke-width="2" d="M1432.5089,-215.7782C1419.4487,-206.0533 1403.9794,-193.3535 1392.0177,-180 1354.0126,-137.5729 1369.9994,-104.205 1323.0177,-72 1286.0668,-46.671 1157.5775,-29.257 1093.2732,-21.9151"/>
<polygon fill="#c0c0c0" stroke="#c0c0c0" stroke-width="2" points="1093.4846,-18.417 1083.1573,-20.7829 1092.706,-25.3736 1093.4846,-18.417"/>
</g>
<!-- 11&#45;&gt;0 -->
<g id="edge8" class="edge">
<title>11&#45;&gt;0</title>
<path fill="none" stroke="#c0c0c0" stroke-width="2" d="M546.2887,-215.8953C565.8857,-207.4667 586.7048,-195.7409 602.0177,-180 638.6446,-142.3492 607.9612,-103.4701 650.0177,-72 679.3416,-50.0574 924.4281,-28.458 1018.9966,-20.8614"/>
<polygon fill="#c0c0c0" stroke="#c0c0c0" stroke-width="2" points="1019.2874,-24.3494 1028.9781,-20.0668 1018.7319,-17.3715 1019.2874,-24.3494"/>
</g>
<!-- 11&#45;&gt;14 -->
<g id="edge35" class="edge">
<title>11&#45;&gt;14</title>
<path fill="none" stroke="#c0c0c0" stroke-width="2" d="M438.5563,-215.9243C411.0785,-206.0815 376.9004,-193.8386 348.0589,-183.5073"/>
<polygon fill="#c0c0c0" stroke="#c0c0c0" stroke-width="2" points="349.0943,-180.1605 338.4998,-180.0831 346.7337,-186.7505 349.0943,-180.1605"/>
</g>
<!-- 17 -->
<g id="node18" class="node">
<title>17</title>
<path fill="none" stroke="#bed856" stroke-width="2" d="M384.5177,-108C384.5177,-108 255.5177,-108 255.5177,-108 249.5177,-108 243.5177,-102 243.5177,-96 243.5177,-96 243.5177,-84 243.5177,-84 243.5177,-78 249.5177,-72 255.5177,-72 255.5177,-72 384.5177,-72 384.5177,-72 390.5177,-72 396.5177,-78 396.5177,-84 396.5177,-84 396.5177,-96 396.5177,-96 396.5177,-102 390.5177,-108 384.5177,-108"/>
<text text-anchor="middle" x="320.0177" y="-87.5" font-family="sans" font-size="10.00" fill="#000000">annotate_bacterial_genome</text>
</g>
<!-- 11&#45;&gt;17 -->
<g id="edge41" class="edge">
<title>11&#45;&gt;17</title>
<path fill="none" stroke="#c0c0c0" stroke-width="2" d="M480.9399,-215.6831C471.4252,-195.8568 453.9636,-164.3519 431.0177,-144 416.5432,-131.1619 398.4729,-120.6628 381.1431,-112.4497"/>
<polygon fill="#c0c0c0" stroke="#c0c0c0" stroke-width="2" points="382.1712,-109.0725 371.6191,-108.1217 379.2752,-115.4454 382.1712,-109.0725"/>
</g>
<!-- 20 -->
<g id="node21" class="node">
<title>20</title>
<path fill="none" stroke="#d88d56" stroke-width="2" d="M495.5177,-108C495.5177,-108 426.5177,-108 426.5177,-108 420.5177,-108 414.5177,-102 414.5177,-96 414.5177,-96 414.5177,-84 414.5177,-84 414.5177,-78 420.5177,-72 426.5177,-72 426.5177,-72 495.5177,-72 495.5177,-72 501.5177,-72 507.5177,-78 507.5177,-84 507.5177,-84 507.5177,-96 507.5177,-96 507.5177,-102 501.5177,-108 495.5177,-108"/>
<text text-anchor="middle" x="461.0177" y="-87.5" font-family="sans" font-size="10.00" fill="#000000">run_busco_prok</text>
</g>
<!-- 11&#45;&gt;20 -->
<g id="edge44" class="edge">
<title>11&#45;&gt;20</title>
<path fill="none" stroke="#c0c0c0" stroke-width="2" d="M485.4715,-215.7623C480.6746,-191.0928 472.0737,-146.8598 466.4569,-117.9731"/>
<polygon fill="#c0c0c0" stroke="#c0c0c0" stroke-width="2" points="469.8795,-117.2377 464.5351,-108.0896 463.0082,-118.5738 469.8795,-117.2377"/>
</g>
<!-- 24 -->
<g id="node25" class="node">
<title>24</title>
<path fill="none" stroke="#d8bc56" stroke-width="2" d="M581.0177,-180C581.0177,-180 533.0177,-180 533.0177,-180 527.0177,-180 521.0177,-174 521.0177,-168 521.0177,-168 521.0177,-156 521.0177,-156 521.0177,-150 527.0177,-144 533.0177,-144 533.0177,-144 581.0177,-144 581.0177,-144 587.0177,-144 593.0177,-150 593.0177,-156 593.0177,-156 593.0177,-168 593.0177,-168 593.0177,-174 587.0177,-180 581.0177,-180"/>
<text text-anchor="middle" x="557.0177" y="-159.5" font-family="sans" font-size="10.00" fill="#000000">finding_16s</text>
</g>
<!-- 11&#45;&gt;24 -->
<g id="edge48" class="edge">
<title>11&#45;&gt;24</title>
<path fill="none" stroke="#c0c0c0" stroke-width="2" d="M506.1769,-215.8314C514.1688,-207.3694 523.8215,-197.1489 532.5593,-187.8971"/>
<polygon fill="#c0c0c0" stroke="#c0c0c0" stroke-width="2" points="535.3057,-190.0866 539.6274,-180.4133 530.2165,-185.2802 535.3057,-190.0866"/>
</g>
<!-- 12&#45;&gt;0 -->
<g id="edge9" class="edge">
<title>12&#45;&gt;0</title>
<path fill="none" stroke="#c0c0c0" stroke-width="2" d="M1188.6292,-215.9888C1227.1827,-203.5527 1271.5128,-187.8867 1277.0177,-180 1304.4908,-140.6397 1306.6582,-109.755 1277.0177,-72 1254.5737,-43.4116 1150.1761,-28.019 1093.2622,-21.6246"/>
<polygon fill="#c0c0c0" stroke="#c0c0c0" stroke-width="2" points="1093.5376,-18.134 1083.2182,-20.5342 1092.782,-25.0931 1093.5376,-18.134"/>
</g>
<!-- 12&#45;&gt;15 -->
<g id="edge37" class="edge">
<title>12&#45;&gt;15</title>
<path fill="none" stroke="#c0c0c0" stroke-width="2" d="M1088.8859,-215.8314C1067.0856,-206.2018 1040.1299,-194.295 1017.1172,-184.1299"/>
<polygon fill="#c0c0c0" stroke="#c0c0c0" stroke-width="2" points="1018.4153,-180.877 1007.8537,-180.038 1015.5868,-187.2802 1018.4153,-180.877"/>
</g>
<!-- 18 -->
<g id="node19" class="node">
<title>18</title>
<path fill="none" stroke="#bed856" stroke-width="2" stroke-dasharray="5,2" d="M1050.5177,-108C1050.5177,-108 921.5177,-108 921.5177,-108 915.5177,-108 909.5177,-102 909.5177,-96 909.5177,-96 909.5177,-84 909.5177,-84 909.5177,-78 915.5177,-72 921.5177,-72 921.5177,-72 1050.5177,-72 1050.5177,-72 1056.5177,-72 1062.5177,-78 1062.5177,-84 1062.5177,-84 1062.5177,-96 1062.5177,-96 1062.5177,-102 1056.5177,-108 1050.5177,-108"/>
<text text-anchor="middle" x="986.0177" y="-87.5" font-family="sans" font-size="10.00" fill="#000000">annotate_bacterial_genome</text>
</g>
<!-- 12&#45;&gt;18 -->
<g id="edge42" class="edge">
<title>12&#45;&gt;18</title>
<path fill="none" stroke="#c0c0c0" stroke-width="2" d="M1130.6006,-215.6935C1130.2686,-195.8762 1126.816,-164.3792 1110.0177,-144 1098.7815,-130.3686 1083.44,-120.0854 1067.3765,-112.3598"/>
<polygon fill="#c0c0c0" stroke="#c0c0c0" stroke-width="2" points="1068.4181,-108.9914 1057.8608,-108.1006 1065.5583,-115.3806 1068.4181,-108.9914"/>
</g>
<!-- 21 -->
<g id="node22" class="node">
<title>21</title>
<path fill="none" stroke="#d88d56" stroke-width="2" stroke-dasharray="5,2" d="M1161.5177,-108C1161.5177,-108 1092.5177,-108 1092.5177,-108 1086.5177,-108 1080.5177,-102 1080.5177,-96 1080.5177,-96 1080.5177,-84 1080.5177,-84 1080.5177,-78 1086.5177,-72 1092.5177,-72 1092.5177,-72 1161.5177,-72 1161.5177,-72 1167.5177,-72 1173.5177,-78 1173.5177,-84 1173.5177,-84 1173.5177,-96 1173.5177,-96 1173.5177,-102 1167.5177,-108 1161.5177,-108"/>
<text text-anchor="middle" x="1127.0177" y="-87.5" font-family="sans" font-size="10.00" fill="#000000">run_busco_prok</text>
</g>
<!-- 12&#45;&gt;21 -->
<g id="edge45" class="edge">
<title>12&#45;&gt;21</title>
<path fill="none" stroke="#c0c0c0" stroke-width="2" d="M1135.9875,-215.7319C1139.0584,-205.3756 1142.474,-192.105 1144.0177,-180 1146.0416,-164.1285 1146.4482,-159.8143 1144.0177,-144 1142.6803,-135.2979 1140.1973,-126.074 1137.5343,-117.759"/>
<polygon fill="#c0c0c0" stroke="#c0c0c0" stroke-width="2" points="1140.8023,-116.4982 1134.2615,-108.1634 1134.1771,-118.7579 1140.8023,-116.4982"/>
</g>
<!-- 26 -->
<g id="node27" class="node">
<title>26</title>
<path fill="none" stroke="#d8bc56" stroke-width="2" stroke-dasharray="5,2" d="M1256.0177,-180C1256.0177,-180 1208.0177,-180 1208.0177,-180 1202.0177,-180 1196.0177,-174 1196.0177,-168 1196.0177,-168 1196.0177,-156 1196.0177,-156 1196.0177,-150 1202.0177,-144 1208.0177,-144 1208.0177,-144 1256.0177,-144 1256.0177,-144 1262.0177,-144 1268.0177,-150 1268.0177,-156 1268.0177,-156 1268.0177,-168 1268.0177,-168 1268.0177,-174 1262.0177,-180 1256.0177,-180"/>
<text text-anchor="middle" x="1232.0177" y="-159.5" font-family="sans" font-size="10.00" fill="#000000">finding_16s</text>
</g>
<!-- 12&#45;&gt;26 -->
<g id="edge50" class="edge">
<title>12&#45;&gt;26</title>
<path fill="none" stroke="#c0c0c0" stroke-width="2" d="M1155.7566,-215.8314C1168.5614,-206.7927 1184.2086,-195.7476 1197.9896,-186.0198"/>
<polygon fill="#c0c0c0" stroke="#c0c0c0" stroke-width="2" points="1200.1357,-188.7891 1206.287,-180.1628 1196.0989,-183.0703 1200.1357,-188.7891"/>
</g>
<!-- 13&#45;&gt;0 -->
<g id="edge10" class="edge">
<title>13&#45;&gt;0</title>
<path fill="none" stroke="#c0c0c0" stroke-width="2" d="M1871.0792,-229.0249C1934.6806,-222.2987 2029.7735,-207.8052 2052.0177,-180 2092.0055,-130.0152 1995.6986,-76.5982 1986.0177,-72 1904.3573,-33.2137 1255.9092,-20.9866 1093.0331,-18.5124"/>
<polygon fill="#c0c0c0" stroke="#c0c0c0" stroke-width="2" points="1093.0691,-15.0126 1083.0181,-18.3633 1092.9649,-22.0118 1093.0691,-15.0126"/>
</g>
<!-- 13&#45;&gt;16 -->
<g id="edge39" class="edge">
<title>13&#45;&gt;16</title>
<path fill="none" stroke="#c0c0c0" stroke-width="2" d="M1752.8088,-218.5542C1712.6075,-208.0669 1658.9906,-194.0799 1615.1372,-182.6399"/>
<polygon fill="#c0c0c0" stroke="#c0c0c0" stroke-width="2" points="1615.9246,-179.2282 1605.3649,-180.0906 1614.1576,-186.0015 1615.9246,-179.2282"/>
</g>
<!-- 19 -->
<g id="node20" class="node">
<title>19</title>
<path fill="none" stroke="#bed856" stroke-width="2" d="M1829.5177,-180C1829.5177,-180 1700.5177,-180 1700.5177,-180 1694.5177,-180 1688.5177,-174 1688.5177,-168 1688.5177,-168 1688.5177,-156 1688.5177,-156 1688.5177,-150 1694.5177,-144 1700.5177,-144 1700.5177,-144 1829.5177,-144 1829.5177,-144 1835.5177,-144 1841.5177,-150 1841.5177,-156 1841.5177,-156 1841.5177,-168 1841.5177,-168 1841.5177,-174 1835.5177,-180 1829.5177,-180"/>
<text text-anchor="middle" x="1765.0177" y="-159.5" font-family="sans" font-size="10.00" fill="#000000">annotate_bacterial_genome</text>
</g>
<!-- 13&#45;&gt;19 -->
<g id="edge43" class="edge">
<title>13&#45;&gt;19</title>
<path fill="none" stroke="#c0c0c0" stroke-width="2" d="M1800.1576,-215.8314C1794.8547,-207.7079 1788.494,-197.9637 1782.6504,-189.0118"/>
<polygon fill="#c0c0c0" stroke="#c0c0c0" stroke-width="2" points="1785.4345,-186.8739 1777.0374,-180.4133 1779.5729,-190.7003 1785.4345,-186.8739"/>
</g>
<!-- 22 -->
<g id="node23" class="node">
<title>22</title>
<path fill="none" stroke="#d88d56" stroke-width="2" d="M1940.5177,-180C1940.5177,-180 1871.5177,-180 1871.5177,-180 1865.5177,-180 1859.5177,-174 1859.5177,-168 1859.5177,-168 1859.5177,-156 1859.5177,-156 1859.5177,-150 1865.5177,-144 1871.5177,-144 1871.5177,-144 1940.5177,-144 1940.5177,-144 1946.5177,-144 1952.5177,-150 1952.5177,-156 1952.5177,-156 1952.5177,-168 1952.5177,-168 1952.5177,-174 1946.5177,-180 1940.5177,-180"/>
<text text-anchor="middle" x="1906.0177" y="-159.5" font-family="sans" font-size="10.00" fill="#000000">run_busco_prok</text>
</g>
<!-- 13&#45;&gt;22 -->
<g id="edge46" class="edge">
<title>13&#45;&gt;22</title>
<path fill="none" stroke="#c0c0c0" stroke-width="2" d="M1835.7378,-215.8314C1847.427,-206.8779 1861.6865,-195.9558 1874.2986,-186.2955"/>
<polygon fill="#c0c0c0" stroke="#c0c0c0" stroke-width="2" points="1876.4946,-189.0222 1882.3051,-180.1628 1872.238,-183.4651 1876.4946,-189.0222"/>
</g>
<!-- 28 -->
<g id="node29" class="node">
<title>28</title>
<path fill="none" stroke="#d8bc56" stroke-width="2" d="M2031.0177,-180C2031.0177,-180 1983.0177,-180 1983.0177,-180 1977.0177,-180 1971.0177,-174 1971.0177,-168 1971.0177,-168 1971.0177,-156 1971.0177,-156 1971.0177,-150 1977.0177,-144 1983.0177,-144 1983.0177,-144 2031.0177,-144 2031.0177,-144 2037.0177,-144 2043.0177,-150 2043.0177,-156 2043.0177,-156 2043.0177,-168 2043.0177,-168 2043.0177,-174 2037.0177,-180 2031.0177,-180"/>
<text text-anchor="middle" x="2007.0177" y="-159.5" font-family="sans" font-size="10.00" fill="#000000">finding_16s</text>
</g>
<!-- 13&#45;&gt;28 -->
<g id="edge52" class="edge">
<title>13&#45;&gt;28</title>
<path fill="none" stroke="#c0c0c0" stroke-width="2" d="M1862.8234,-215.9466C1891.6834,-205.6015 1928.4472,-192.2723 1961.0177,-180 1961.118,-179.9622 1961.2184,-179.9243 1961.319,-179.8864"/>
<polygon fill="#c0c0c0" stroke="#c0c0c0" stroke-width="2" points="1962.7952,-183.0694 1970.8916,-176.2358 1960.3008,-176.5289 1962.7952,-183.0694"/>
</g>
<!-- 14&#45;&gt;0 -->
<g id="edge11" class="edge">
<title>14&#45;&gt;0</title>
<path fill="none" stroke="#c0c0c0" stroke-width="2" d="M264.1937,-143.9351C241.4977,-124.6138 213.5911,-93.8125 234.0177,-72 261.1929,-42.981 861.4835,-23.6287 1018.6376,-19.0474"/>
<polygon fill="#c0c0c0" stroke="#c0c0c0" stroke-width="2" points="1018.8615,-22.5425 1028.7562,-18.755 1018.6593,-15.5454 1018.8615,-22.5425"/>
</g>
<!-- 15&#45;&gt;0 -->
<g id="edge12" class="edge">
<title>15&#45;&gt;0</title>
<path fill="none" stroke="#c0c0c0" stroke-width="2" d="M933.418,-143.8076C920.4772,-134.8793 907.1096,-122.8246 900.0177,-108 893.1128,-93.5666 890.7371,-85.0334 900.0177,-72 914.0699,-52.2654 977.5967,-35.0456 1019.1243,-25.6257"/>
<polygon fill="#c0c0c0" stroke="#c0c0c0" stroke-width="2" points="1019.9018,-29.0384 1028.9077,-23.4576 1018.3873,-22.2042 1019.9018,-29.0384"/>
</g>
<!-- 16&#45;&gt;0 -->
<g id="edge13" class="edge">
<title>16&#45;&gt;0</title>
<path fill="none" stroke="#c0c0c0" stroke-width="2" d="M1512.6959,-143.9918C1484.5316,-123.2088 1434.9497,-89.635 1387.0177,-72 1284.9979,-34.4652 1155.7341,-22.9572 1093.2253,-19.4773"/>
<polygon fill="#c0c0c0" stroke="#c0c0c0" stroke-width="2" points="1093.2329,-15.9731 1083.0651,-18.9505 1092.8704,-22.9637 1093.2329,-15.9731"/>
</g>
<!-- 17&#45;&gt;0 -->
<g id="edge14" class="edge">
<title>17&#45;&gt;0</title>
<path fill="none" stroke="#c0c0c0" stroke-width="2" d="M396.8504,-73.2767C399.6025,-72.8221 402.3313,-72.3943 405.0177,-72 636.9695,-37.9585 918.8027,-23.6831 1018.7173,-19.4485"/>
<polygon fill="#c0c0c0" stroke="#c0c0c0" stroke-width="2" points="1019.0573,-22.9374 1028.9033,-19.0251 1018.7665,-15.9435 1019.0573,-22.9374"/>
</g>
<!-- 18&#45;&gt;0 -->
<g id="edge15" class="edge">
<title>18&#45;&gt;0</title>
<path fill="none" stroke="#c0c0c0" stroke-width="2" d="M1003.6816,-71.8314C1011.9908,-63.2848 1022.044,-52.9443 1031.1095,-43.6198"/>
<polygon fill="#c0c0c0" stroke="#c0c0c0" stroke-width="2" points="1033.6546,-46.023 1038.1159,-36.4133 1028.6356,-41.1435 1033.6546,-46.023"/>
</g>
<!-- 19&#45;&gt;0 -->
<g id="edge16" class="edge">
<title>19&#45;&gt;0</title>
<path fill="none" stroke="#c0c0c0" stroke-width="2" d="M1707.606,-143.9279C1642.3658,-123.9471 1532.4221,-91.9532 1436.0177,-72 1311.8311,-46.2967 1162.2707,-28.9654 1093.7005,-21.7641"/>
<polygon fill="#c0c0c0" stroke="#c0c0c0" stroke-width="2" points="1093.7151,-18.2468 1083.4071,-20.6955 1092.9923,-25.2094 1093.7151,-18.2468"/>
</g>
<!-- 20&#45;&gt;0 -->
<g id="edge17" class="edge">
<title>20&#45;&gt;0</title>
<path fill="none" stroke="#c0c0c0" stroke-width="2" d="M507.6377,-73.9811C510.4568,-73.25 513.2651,-72.5809 516.0177,-72 702.2701,-32.6954 930.8771,-21.7959 1018.9785,-18.9473"/>
<polygon fill="#c0c0c0" stroke="#c0c0c0" stroke-width="2" points="1019.1262,-22.4446 1029.0138,-18.6385 1018.9108,-15.4479 1019.1262,-22.4446"/>
</g>
<!-- 21&#45;&gt;0 -->
<g id="edge18" class="edge">
<title>21&#45;&gt;0</title>
<path fill="none" stroke="#c0c0c0" stroke-width="2" d="M1109.1014,-71.8314C1100.6735,-63.2848 1090.4767,-52.9443 1081.2817,-43.6198"/>
<polygon fill="#c0c0c0" stroke="#c0c0c0" stroke-width="2" points="1083.6888,-41.0761 1074.1752,-36.4133 1078.7046,-45.9912 1083.6888,-41.0761"/>
</g>
<!-- 22&#45;&gt;0 -->
<g id="edge19" class="edge">
<title>22&#45;&gt;0</title>
<path fill="none" stroke="#c0c0c0" stroke-width="2" d="M1859.3648,-146.6413C1856.211,-145.7153 1853.0739,-144.8257 1850.0177,-144 1706.3536,-105.1876 1669.7885,-96.5786 1523.0177,-72 1364.129,-45.3921 1172.6243,-27.7124 1093.2617,-21.0115"/>
<polygon fill="#c0c0c0" stroke="#c0c0c0" stroke-width="2" points="1093.5202,-17.521 1083.2633,-20.1755 1092.9368,-24.4966 1093.5202,-17.521"/>
</g>
<!-- 23 -->
<g id="node24" class="node">
<title>23</title>
<path fill="none" stroke="#88d856" stroke-width="2" d="M590.5177,-108C590.5177,-108 537.5177,-108 537.5177,-108 531.5177,-108 525.5177,-102 525.5177,-96 525.5177,-96 525.5177,-84 525.5177,-84 525.5177,-78 531.5177,-72 537.5177,-72 537.5177,-72 590.5177,-72 590.5177,-72 596.5177,-72 602.5177,-78 602.5177,-84 602.5177,-84 602.5177,-96 602.5177,-96 602.5177,-102 596.5177,-108 590.5177,-108"/>
<text text-anchor="middle" x="564.0177" y="-87.5" font-family="sans" font-size="10.00" fill="#000000">filtering_16s</text>
</g>
<!-- 23&#45;&gt;0 -->
<g id="edge20" class="edge">
<title>23&#45;&gt;0</title>
<path fill="none" stroke="#c0c0c0" stroke-width="2" d="M602.5412,-75.8966C607.3732,-74.4305 612.2812,-73.0835 617.0177,-72 763.5789,-38.4718 942.7428,-24.6426 1018.9114,-19.9921"/>
<polygon fill="#c0c0c0" stroke="#c0c0c0" stroke-width="2" points="1019.1863,-23.4821 1028.9614,-19.3958 1018.7716,-16.4944 1019.1863,-23.4821"/>
</g>
<!-- 24&#45;&gt;23 -->
<g id="edge47" class="edge">
<title>24&#45;&gt;23</title>
<path fill="none" stroke="#c0c0c0" stroke-width="2" d="M558.7841,-143.8314C559.5327,-136.131 560.4229,-126.9743 561.2549,-118.4166"/>
<polygon fill="#c0c0c0" stroke="#c0c0c0" stroke-width="2" points="564.7433,-118.7051 562.2275,-108.4133 557.7762,-118.0276 564.7433,-118.7051"/>
</g>
<!-- 25 -->
<g id="node26" class="node">
<title>25</title>
<path fill="none" stroke="#88d856" stroke-width="2" d="M1256.5177,-108C1256.5177,-108 1203.5177,-108 1203.5177,-108 1197.5177,-108 1191.5177,-102 1191.5177,-96 1191.5177,-96 1191.5177,-84 1191.5177,-84 1191.5177,-78 1197.5177,-72 1203.5177,-72 1203.5177,-72 1256.5177,-72 1256.5177,-72 1262.5177,-72 1268.5177,-78 1268.5177,-84 1268.5177,-84 1268.5177,-96 1268.5177,-96 1268.5177,-102 1262.5177,-108 1256.5177,-108"/>
<text text-anchor="middle" x="1230.0177" y="-87.5" font-family="sans" font-size="10.00" fill="#000000">filtering_16s</text>
</g>
<!-- 25&#45;&gt;0 -->
<g id="edge21" class="edge">
<title>25&#45;&gt;0</title>
<path fill="none" stroke="#c0c0c0" stroke-width="2" d="M1191.4014,-74.0209C1161.8971,-61.8122 1121.5072,-45.0991 1092.5362,-33.1111"/>
<polygon fill="#c0c0c0" stroke="#c0c0c0" stroke-width="2" points="1093.7597,-29.8296 1083.1813,-29.2401 1091.0832,-36.2978 1093.7597,-29.8296"/>
</g>
<!-- 26&#45;&gt;25 -->
<g id="edge49" class="edge">
<title>26&#45;&gt;25</title>
<path fill="none" stroke="#c0c0c0" stroke-width="2" d="M1231.513,-143.8314C1231.2991,-136.131 1231.0447,-126.9743 1230.807,-118.4166"/>
<polygon fill="#c0c0c0" stroke="#c0c0c0" stroke-width="2" points="1234.3056,-118.3122 1230.5292,-108.4133 1227.3083,-118.5066 1234.3056,-118.3122"/>
</g>
<!-- 27 -->
<g id="node28" class="node">
<title>27</title>
<path fill="none" stroke="#88d856" stroke-width="2" d="M1965.5177,-108C1965.5177,-108 1912.5177,-108 1912.5177,-108 1906.5177,-108 1900.5177,-102 1900.5177,-96 1900.5177,-96 1900.5177,-84 1900.5177,-84 1900.5177,-78 1906.5177,-72 1912.5177,-72 1912.5177,-72 1965.5177,-72 1965.5177,-72 1971.5177,-72 1977.5177,-78 1977.5177,-84 1977.5177,-84 1977.5177,-96 1977.5177,-96 1977.5177,-102 1971.5177,-108 1965.5177,-108"/>
<text text-anchor="middle" x="1939.0177" y="-87.5" font-family="sans" font-size="10.00" fill="#000000">filtering_16s</text>
</g>
<!-- 27&#45;&gt;0 -->
<g id="edge22" class="edge">
<title>27&#45;&gt;0</title>
<path fill="none" stroke="#c0c0c0" stroke-width="2" d="M1900.3253,-83.2903C1877.3413,-79.5067 1847.5862,-74.9592 1821.0177,-72 1542.2054,-40.9457 1204.12,-24.4294 1093.2068,-19.5569"/>
<polygon fill="#c0c0c0" stroke="#c0c0c0" stroke-width="2" points="1093.3346,-16.0592 1083.192,-19.1216 1093.0306,-23.0526 1093.3346,-16.0592"/>
</g>
<!-- 28&#45;&gt;27 -->
<g id="edge51" class="edge">
<title>28&#45;&gt;27</title>
<path fill="none" stroke="#c0c0c0" stroke-width="2" d="M1989.8584,-143.8314C1981.8665,-135.3694 1972.2139,-125.1489 1963.476,-115.8971"/>
<polygon fill="#c0c0c0" stroke="#c0c0c0" stroke-width="2" points="1965.8188,-113.2802 1956.408,-108.4133 1960.7297,-118.0866 1965.8188,-113.2802"/>
</g>
</g>
</svg>
